 <svg
            version="1.0"
            xmlns="http://www.w3.org/2000/svg"
            width="347.000000pt"
            height="345.000000pt"
            viewBox="0 0 347.000000 345.000000"
            preserveAspectRatio="xMidYMid meet"
          >
            <g
              transform="translate(0.000000,345.000000) scale(0.100000,-0.100000)"
              fill="#000000"
              stroke="none"
            >
              <path
                d="M1613 3414 c-66 -32 -120 -87 -188 -189 -64 -95 -94 -160 -126 -270
-34 -117 -34 -331 0 -460 22 -86 84 -226 102 -233 5 -2 9 -8 9 -14 0 -23 109
-137 198 -208 118 -95 166 -152 204 -242 43 -101 50 -247 19 -361 -11 -42 -21
-79 -21 -82 0 -3 19 -5 43 -5 23 0 94 -11 157 -24 86 -18 118 -21 127 -12 20
19 53 165 60 261 8 122 -10 246 -53 357 -65 172 -125 250 -303 396 -174 144
-216 229 -216 437 1 116 4 139 29 210 15 44 44 104 65 135 21 30 56 82 79 115
45 66 60 121 42 154 -33 64 -139 80 -227 35z"
              />
              <path
                d="M2549 1808 c-7 -12 -21 -39 -32 -58 -57 -100 -143 -291 -212 -469
-16 -40 -35 -75 -42 -78 -7 -3 -31 2 -52 11 -22 8 -84 26 -138 40 -290 72
-559 60 -835 -37 l-96 -34 -12 46 c-53 217 -127 384 -214 483 l-39 45 -36 -41
c-83 -94 -187 -242 -251 -361 -18 -33 -36 -64 -40 -70 -18 -25 -142 -310 -173
-401 -20 -56 -50 -160 -67 -230 -17 -71 -34 -137 -36 -146 -4 -15 -18 -16
-129 -11 -112 5 -125 4 -131 -11 -12 -30 17 -43 124 -54 57 -7 109 -15 114
-18 11 -7 5 -80 -7 -92 -3 -4 -47 -10 -96 -13 -90 -6 -122 -19 -112 -45 4 -11
27 -14 99 -14 94 0 95 0 105 -28 22 -56 3 -76 -126 -135 -50 -22 -63 -40 -46
-66 8 -12 22 -10 85 13 80 28 96 27 96 -5 0 -19 14 -19 735 -19 l735 0 0 73
c0 73 0 74 -45 123 -88 95 -74 124 60 124 134 0 149 -31 60 -122 l-45 -47 0
-75 0 -76 705 0 705 0 0 24 c0 14 4 27 9 30 5 3 43 -9 86 -26 58 -23 81 -29
94 -21 42 26 18 48 -111 102 -49 20 -84 61 -74 86 4 12 27 15 115 15 115 0
161 10 161 34 0 23 -56 36 -155 36 -108 0 -128 10 -123 60 l3 35 134 16 c144
18 177 32 150 65 -14 17 -54 17 -235 -2 l-61 -7 -8 59 c-11 97 -42 243 -70
334 -15 47 -31 100 -37 119 -10 36 -86 230 -132 341 -63 149 -169 335 -221
387 -9 8 -27 30 -41 49 -15 18 -31 31 -37 27 -5 -3 -7 -2 -4 4 4 6 -4 20 -17
32 l-24 23 -13 -24z m98 -350 c29 -57 93 -181 143 -275 50 -95 86 -173 81
-173 -15 0 -82 29 -256 113 -93 45 -172 83 -174 84 -3 2 22 66 126 321 7 17
17 32 21 32 4 0 31 -46 59 -102z m-1735 -128 c43 -129 55 -178 47 -191 -9 -17
-106 -67 -312 -161 -49 -22 -91 -38 -93 -35 -12 12 109 274 199 430 31 54 57
102 57 106 0 12 24 31 35 28 5 -2 36 -81 67 -177z m1343 -493 c101 -36 188
-142 215 -262 25 -111 -29 -241 -125 -300 -44 -27 -56 -30 -134 -30 -74 0 -93
4 -139 28 -73 38 -128 97 -165 174 -25 55 -30 78 -30 137 1 141 73 237 203
272 53 15 93 10 175 -19z m-839 -7 c137 -70 180 -227 105 -385 -111 -236 -427
-271 -536 -60 -60 118 -29 283 72 376 109 100 245 127 359 69z"
              />
              <path
                class="eye"
                d="M2095 810 c-87 -35 -96 -165 -16 -213 48 -28 98 -22 137 17 29 29 34
41 34 83 0 55 -17 86 -60 108 -32 16 -64 18 -95 5z m55 -36 c11 -12 10 -18 -3
-31 -13 -13 -19 -14 -31 -3 -19 15 -21 36 -3 43 20 9 24 8 37 -9z"
              />
              <path
                class="eye"
                d="M1305 813 c-61 -16 -101 -81 -88 -144 9 -45 65 -89 114 -89 132 0
165 175 43 226 -35 15 -37 15 -69 7z m60 -48 c0 -30 -39 -27 -43 3 -3 20 0 23
20 20 15 -2 23 -10 23 -23z"
              />
            </g>
          </svg>